<svg width="120" height="120" viewBox="0 0 120 120" fill="none" xmlns="http://www.w3.org/2000/svg">
<rect x="0.5" y="0.5" width="119" height="119" rx="41.5" fill="url(#paint0_linear_1_10)"/>
<rect x="0.5" y="0.5" width="119" height="119" rx="41.5" stroke="#FFF1F2"/>
<path d="M69.5207 33.5625C69.5207 38.8437 65.2394 43.125 59.9582 43.125C54.677 43.125 50.3957 38.8437 50.3957 33.5625C50.3957 28.2813 54.677 24 59.9582 24C65.2394 24 69.5207 28.2813 69.5207 33.5625Z" fill="#FFF1F2"/>
<path d="M87.635 55.0625C83.0613 57.7031 77.213 56.136 74.5724 51.5624C71.9318 46.9887 73.4988 41.1404 78.0725 38.4998C82.6462 35.8591 88.4945 37.4262 91.1351 41.9999C93.7757 46.5735 92.2087 52.4219 87.635 55.0625Z" fill="#FFF1F2"/>
<path d="M28.7813 77.9999C31.4219 82.5735 37.2702 84.1406 41.8439 81.5C46.4176 78.8594 47.9846 73.011 45.344 68.4374C42.7034 63.8637 36.8551 62.2966 32.2814 64.9373C27.7077 67.5779 26.1407 73.4262 28.7813 77.9999Z" fill="#FFF1F2"/>
<path d="M87.635 64.9375C83.0613 62.2969 77.213 63.864 74.5724 68.4376C71.9318 73.0113 73.4988 78.8596 78.0725 81.5002C82.6462 84.1409 88.4945 82.5738 91.1351 78.0001C93.7757 73.4265 92.2087 67.5781 87.635 64.9375Z" fill="#FFF1F2"/>
<path d="M41.8439 38.4998C37.2702 35.8592 31.4219 37.4263 28.7813 41.9999C26.1407 46.5736 27.7077 52.422 32.2814 55.0626C35.214 56.7557 38.6706 56.719 41.4697 55.269C43.4144 54.2616 45.7906 53.7102 47.6874 54.8053L48.3374 55.1805C49.7894 56.0189 50.3957 57.7606 50.3957 59.4373C50.3957 62.697 52.0267 65.5757 54.5171 67.3019C56.2319 68.4906 57.75 70.2174 57.75 72.3039V73.5708C57.75 75.6572 56.2319 77.3841 54.5171 78.5727C52.0267 80.299 50.3957 83.1777 50.3957 86.4373C50.3957 91.7185 54.677 95.9998 59.9582 95.9998C65.2394 95.9998 69.5207 91.7185 69.5207 86.4373C69.5207 83.1967 67.9087 80.3326 65.4428 78.603C63.7471 77.4137 62.25 75.6952 62.25 73.624V72.2507C62.25 70.1794 63.7471 68.461 65.4428 67.2716C67.9087 65.5421 69.5207 62.678 69.5207 59.4373C69.5207 54.1561 65.2394 49.8748 59.9582 49.8748C58.5316 49.8748 57.1779 50.1872 55.9619 50.7474C54.0959 51.6069 51.8805 52.03 50.1012 51.0027L49.2606 50.5174C47.5573 49.534 46.7985 47.5301 46.5498 45.579C46.185 42.7175 44.5349 40.0535 41.8439 38.4998Z" fill="#FFF1F2"/>
<defs>
<linearGradient id="paint0_linear_1_10" x1="111.429" y1="5.57143" x2="10.1786" y2="115.607" gradientUnits="userSpaceOnUse">
<stop stop-color="#FB7185"/>
<stop offset="1" stop-color="#E11D48"/>
</linearGradient>
</defs>
</svg>
